<?xml version="1.0" encoding="UTF-8" standalone="no"?>
<svg
   xmlns:dc="http://purl.org/dc/elements/1.1/"
   xmlns:cc="http://creativecommons.org/ns#"
   xmlns:rdf="http://www.w3.org/1999/02/22-rdf-syntax-ns#"
   xmlns:svg="http://www.w3.org/2000/svg"
   xmlns="http://www.w3.org/2000/svg"
   xmlns:xlink="http://www.w3.org/1999/xlink"
   xmlns:sodipodi="http://sodipodi.sourceforge.net/DTD/sodipodi-0.dtd"
   xmlns:inkscape="http://www.inkscape.org/namespaces/inkscape"
   version="1.1"
   id="svg250"
   width="672.66669"
   height="1359.3333"
   viewBox="0 0 672.66669 1359.3333"
   sodipodi:docname="regenbogen.svgz"
   inkscape:version="1.0.2 (e86c870879, 2021-01-15)">
  <metadata
     id="metadata256">
    <rdf:RDF>
      <cc:Work
         rdf:about="">
        <dc:format>image/svg+xml</dc:format>
        <dc:type
           rdf:resource="http://purl.org/dc/dcmitype/StillImage" />
        <dc:title></dc:title>
      </cc:Work>
    </rdf:RDF>
  </metadata>
  <defs
     id="defs254">
    <linearGradient
       inkscape:collect="always"
       xlink:href="#linearGradient1175"
       id="linearGradient1177"
       x1="1.514541"
       y1="151.46786"
       x2="699.7395"
       y2="1194.2419"
       gradientUnits="userSpaceOnUse"
       gradientTransform="translate(2.8191315,9.4130213)" />
    <linearGradient
       inkscape:collect="always"
       id="linearGradient1175">
      <stop
         style="stop-color:#ff0000;stop-opacity:1"
         offset="0"
         id="stop1171" />
      <stop
         style="stop-color:#ffd900;stop-opacity:1"
         offset="0.38251984"
         id="stop1231" />
      <stop
         style="stop-color:#ffe600;stop-opacity:1"
         offset="0.42188865"
         id="stop1235" />
      <stop
         style="stop-color:#ffea00;stop-opacity:1"
         offset="0.43525657"
         id="stop1257" />
      <stop
         style="stop-color:#f7e600;stop-opacity:1"
         offset="0.45251268"
         id="stop1179" />
      <stop
         style="stop-color:#a5d200;stop-opacity:1"
         offset="0.52323002"
         id="stop1233" />
      <stop
         style="stop-color:#65b600;stop-opacity:1"
         offset="0.57054138"
         id="stop1181" />
      <stop
         style="stop-color:#4b8c75;stop-opacity:1"
         offset="0.67727268"
         id="stop1253" />
      <stop
         style="stop-color:#3a6199;stop-opacity:1"
         offset="0.7568931"
         id="stop1183" />
      <stop
         style="stop-color:#5238aa;stop-opacity:1"
         offset="0.81771439"
         id="stop1255" />
      <stop
         style="stop-color:#a01ca0;stop-opacity:1"
         offset="1"
         id="stop1173" />
    </linearGradient>
  </defs>
  <sodipodi:namedview
     pagecolor="#ffffff"
     bordercolor="#666666"
     borderopacity="1"
     objecttolerance="10"
     gridtolerance="10"
     guidetolerance="10"
     inkscape:pageopacity="0"
     inkscape:pageshadow="2"
     inkscape:window-width="3840"
     inkscape:window-height="2091"
     id="namedview252"
     showgrid="false"
     inkscape:zoom="1.3918588"
     inkscape:cx="336.33334"
     inkscape:cy="679.66663"
     inkscape:window-x="0"
     inkscape:window-y="41"
     inkscape:window-maximized="1"
     inkscape:current-layer="g258" />
  <g
     inkscape:groupmode="layer"
     inkscape:label="Image"
     id="g258">
    <path
       style="fill:url(#linearGradient1177);stroke-width:1;font-variation-settings:normal;opacity:1;vector-effect:none;fill-opacity:1;stroke-linecap:butt;stroke-linejoin:miter;stroke-miterlimit:4;stroke-dasharray:none;stroke-dashoffset:0;stroke-opacity:1;stop-color:#000000;stop-opacity:1"
       d="m 377.98116,1338.7486 c -12.32481,-3.9447 -27.24286,-16.8752 -32.97491,-28.5815 -1.81122,-3.699 -1.85087,-4.0171 -1.47308,-11.8176 0.21353,-4.4089 1.58996,-17.6162 3.05872,-29.3495 5.24981,-41.9386 5.0078,-38.8862 3.46802,-43.7393 -1.42365,-4.4871 -4.33974,-24.1045 -5.12052,-34.4474 l -0.4609,-6.1054 -2.30991,-0.7623 c -3.45286,-1.1396 -4.99107,-5.0966 -5.09091,-13.0962 -0.0846,-6.7819 0.26791,-7.4865 3.75568,-7.5059 1.79248,-0.01 1.83333,-0.098 1.83333,-3.9585 0,-3.8882 -0.0341,-3.9595 -2.23511,-4.686 -1.29238,-0.4265 -2.55773,-1.4457 -3,-2.4164 -1.66073,-3.6448 -0.29524,-9.9831 2.53058,-11.7462 1.38174,-0.8622 1.39359,-1.1338 1.3571,-31.1152 l -0.0368,-30.2453 -2.66996,-4.4213 c -1.46848,-2.4317 -3.25474,-6.3713 -3.96947,-8.7546 -1.33091,-4.438 -4.20455,-25.9963 -4.97641,-37.3334 -0.25575,-3.7565 -0.87721,-7.21 -1.52743,-8.4881 -1.43408,-2.8188 -0.5149,-3.7675 3.50318,-3.6155 3.15258,0.1192 3.55078,-0.3336 2.31823,-2.6367 -0.38835,-0.7257 -0.82448,-3.6309 -0.96917,-6.4562 -0.1447,-2.8252 -0.7533,-9.18679 -1.35244,-14.13679 -0.85278,-7.0456 -1.16355,-17.85407 -1.43107,-49.77293 -0.22189,-26.4748 -0.10893,-41.18894 0.32213,-41.9592 0.5155,-0.9212 0.24002,-1.7168 -1.2328,-3.5604 -3.0204,-3.7808 -3.65038,-9.5994 -1.60957,-14.8664 0.45245,-1.16767 -0.0523,-3.99313 -2.35363,-13.1744 -2.41371,-9.62973 -4.69504,-28.7982 -7.08619,-59.54047 -0.74267,-9.54826 -1.43535,-15.09566 -1.87878,-15.04633 -2.47558,0.2754 -3.133,-1.12487 -4.32948,-9.2214 -1.17832,-7.97373 -2.21988,-38.25547 -1.84103,-53.52513 0.27531,-11.096 0.62077,-15.16147 1.52953,-18 1.4788,-4.619 2.02952,-26.81153 0.98167,-39.55847 -0.67564,-8.21886 -2.4738,-17.77486 -3.34472,-17.77486 -0.22916,0 -1.36733,1.575 -2.52928,3.5 -4.14278,6.86333 -4.27022,8.06333 -4.86752,45.83333 -0.4811,30.42227 -1.18632,48.35713 -2.31996,59 -1.36979,12.86006 -8.54467,73.33193 -9.3732,79 -1.22843,8.4038 -4.4611,25.1622 -6.60993,34.26633 l -1.55771,6.59966 1.37197,1.85567 c 1.6979,2.29653 1.30548,5.7738 -1.21231,10.7424 l -1.69954,3.35387 1.49791,3.4244 c 2.57501,5.88666 2.55346,8.9442 -0.44933,63.75766 -0.9677,17.66454 -2.44342,33.68826 -3.56984,38.76196 l -0.53918,2.4288 2.60529,0.4166 c 2.99765,0.4793 3.78523,1.7617 2.39379,3.8978 -0.57859,0.8882 -1.1671,4.2003 -1.4502,8.1615 -0.85001,11.8939 -3.69952,33.2223 -5.03232,37.6667 -0.71474,2.3833 -2.501,6.3229 -3.96948,8.7546 l -2.66996,4.4213 -0.0368,30.2453 c -0.0365,29.9814 -0.0247,30.253 1.35711,31.1152 2.82581,1.7631 4.1913,8.1014 2.53058,11.7462 -0.44227,0.9707 -1.70763,1.9899 -3,2.4164 -2.20107,0.7265 -2.23511,0.7978 -2.23511,4.686 0,3.8603 0.0409,3.9485 1.83333,3.9585 3.48777,0.019 3.84031,0.724 3.75568,7.5059 -0.0998,7.9996 -1.63805,11.9566 -5.09091,13.0962 l -2.30992,0.7623 -0.46089,6.1054 c -0.78078,10.3429 -3.69687,29.9603 -5.12053,34.4474 -1.53977,4.8531 -1.78178,1.8007 3.46803,43.7393 1.46876,11.7333 2.84519,24.9406 3.05872,29.3495 0.37779,7.8005 0.33813,8.1186 -1.47309,11.8176 -7.05896,14.4163 -27.54899,29.8329 -39.65053,29.8329 -7.31027,0 -19.54382,-10.7012 -24.76934,-21.6667 -3.63278,-7.6232 -3.07837,-10.2289 7.58856,-35.6667 9.24236,-22.0404 19.22924,-48.0872 18.89122,-49.2702 -0.16709,-0.5847 -0.638,-5.5631 -1.04647,-11.0631 -0.40847,-5.5 -1.47719,-15.7732 -2.37494,-22.8293 -0.89775,-7.056 -1.63227,-13.113 -1.63227,-13.4597 0,-0.3468 -1.11534,-0.7236 -2.47855,-0.8374 -3.58159,-0.299 -5.52145,-3.3597 -5.52145,-8.7115 0,-3.208 0.28917,-4.2792 1.5,-5.5566 0.825,-0.8704 2.03534,-1.5876 2.68963,-1.594 1.04645,-0.01 1.136,-0.4328 0.744,-3.5115 -0.46943,-3.6869 -1.27847,-5.8333 -2.19875,-5.8333 -0.30334,0 -1.71779,-0.9238 -3.14321,-2.0528 -6.32737,-5.0118 -6.41308,-11.5954 -0.16881,-12.9669 1.53906,-0.338 1.84488,-0.7 1.57694,-1.8665 -0.18284,-0.796 -1.97305,-10.5972 -3.97827,-21.7805 -2.00521,-11.1833 -4.27557,-23.1833 -5.04523,-26.6667 -0.76966,-3.4833 -1.56209,-7.2333 -1.76096,-8.3333 -0.19887,-1.1 -1.2261,-3.8 -2.28274,-6 -1.99073,-4.1448 -2.90252,-7.5523 -6.68967,-25 -1.87554,-8.6407 -2.24289,-11.6983 -2.24271,-18.6667 3e-4,-11.0815 1.06204,-14.1442 5.3414,-15.4077 2.7108,-0.8004 2.909,-1.0063 2.46953,-2.5646 -0.76805,-2.7235 -0.27769,-18.88332 0.89095,-29.36099 1.90572,-17.0862 5.47762,-34.30433 14.00724,-67.52127 3.83428,-14.93193 4.4516,-18.06793 3.77106,-19.15766 -1.17048,-1.8742 -0.95312,-5.95447 0.4584,-8.60454 1.18518,-2.22513 1.1823,-2.36013 -0.11235,-5.28693 -1.20387,-2.72153 -1.26888,-3.63366 -0.69257,-9.71653 0.50937,-5.3762 0.44176,-7.37687 -0.3395,-10.0464 -0.53654,-1.83333 -3.60035,-13.68333 -6.80846,-26.33333 l -5.83294,-23 -1.54739,3.61713 -1.5474,3.6172 -0.83236,-1.95053 c -0.46607,-1.09214 -0.86801,-5.03087 -0.91338,-8.95047 l -0.081,-7 -1.22429,4.14653 c -0.67336,2.2806 -2.02997,5.8806 -3.0147,8 -1.7236,3.70967 -1.81549,3.79127 -2.46293,2.1868 -0.41732,-1.0342 -0.52833,-6.2204 -0.29253,-13.66666 0.37911,-11.97174 0.37696,-11.99607 -0.91366,-10.33334 -0.71152,0.91667 -1.30034,2.0012 -1.30849,2.41007 -0.008,0.40893 -0.66199,1.5662 -1.45298,2.5718 l -1.43815,1.82827 -0.87156,-1.57174 c -2.22042,-4.0042 -0.34684,-12.40946 4.74228,-21.2748 l 2.89112,-5.03633 -0.92503,-3.96367 c -2.617,-11.21353 -10.42041,-51.16086 -11.58321,-59.29693 -1.89748,-13.27666 -2.91592,-31.41013 -2.53627,-45.15856 l 0.32655,-11.82524 -1.75046,0.38078 c -0.96274,0.20942 -3.85897,0.97974 -6.43605,1.71182 -6.45049,1.83241 -9.00485,1.51101 -10.41389,-1.31031 -0.67617,-1.35387 -1.23344,-1.86724 -1.44738,-1.33333 -0.98294,2.45313 -0.24429,-6.57388 1.27386,-15.56759 2.26972,-13.44613 4.91113,-23.73819 7.95528,-30.99718 1.36092,-3.24521 3.30231,-8.18074 4.31422,-10.96784 5.32253,-14.65992 12.96992,-29.75096 24.12091,-47.59921 14.68807,-23.50969 23.35498,-39.7936 27.55533,-51.77257 l 1.79036,-5.10592 -1.5122,-2.04536 c -1.48221,-2.0048 -1.49114,-2.12106 -0.45018,-5.86102 0.92719,-3.33117 0.94166,-4.04842 0.114,-5.64894 -0.52142,-1.00832 -0.94804,-3.06184 -0.94804,-4.56338 0,-3.3959 2.28592,-6.00281 5.26368,-6.00281 1.09503,0 2.18081,-0.30718 2.41285,-0.68263 0.23204,-0.37545 0.7363,-4.78171 1.12058,-9.79169 1.7197,-22.4204 -3.23017,-54.85158 -11.93425,-78.19234 -4.19192,-11.24099 -10.11025,-21.45782 -16.5538,-28.57684 l -3.23744,-3.57683 -2.55376,2.91017 c -5.46982,6.2332 -19.08781,30.83414 -36.48494,65.91016 -10.51216,21.19458 -11.6581,24.12769 -13.34243,34.15066 -2.38176,14.17324 -5.91971,22.5654 -17.28362,40.99742 -3.58759,5.81901 -7.60229,12.51619 -8.92155,14.88263 -5.52058,9.90263 -15.21844,34.0694 -21.12224,52.63596 -1.92378,6.05 -5.737467,17.14086 -8.474867,24.64635 -2.7374,7.50549 -5.8355,16.60801 -6.884667,20.22781 -1.865366,6.43582 -3.35564,9.12584 -5.055726,9.12584 -1.405061,0 -4.730634,-3.17892 -6.520307,-6.23276 -0.926967,-1.58174 -2.62362,-5.25146 -3.77034,-8.15491 -3.761161,-9.52309 -7.458269,-17.61233 -8.049549,-17.61233 -0.820204,0 -3.17921,4.82022 -5.048032,10.31478 -1.568323,4.61106 -3.315329,16.46242 -2.597851,17.62332 0.203028,0.32851 0.664646,10.15182 1.025819,21.82959 0.936594,30.28281 2.054293,35.46767 9.520906,44.1663 4.34526,5.0622 5.695807,8.398 3.808906,9.40787 -3.221866,1.72427 -9.451536,0.0849 -12.727537,-3.34927 -1.357875,-1.4234 -3.358534,-4.81126 -4.582331,-7.75953 -3.852755,-9.28179 -6.721679,-14.36311 -10.16513,-18.00405 -1.853019,-1.95929 -3.734304,-3.56235 -4.180633,-3.56235 -2.336152,0 -1.309971,14.57843 1.712831,24.33333 1.809627,5.83987 5.448552,13.1776 8.265306,16.66667 3.73527,4.6268 3.921373,5.29247 2.425294,8.6746 -0.727947,1.6456 -1.472875,2.99207 -1.655395,2.99207 -0.182521,0 -1.731043,-1.81834 -3.441159,-4.0408 -1.710117,-2.2224 -3.242908,-3.90714 -3.406202,-3.74387 -0.163295,0.16333 0.190888,3.10667 0.787071,6.5408 1.594796,9.18633 0.374957,14.61127 -4.199537,18.67647 l -1.987195,1.766 -0.414715,-3.02567 c -0.228093,-1.66413 -0.435907,-3.9588 -0.461807,-5.09933 l -0.04709,-2.0736 -1.217392,2.7356 c -1.312639,2.9496 -2.99871,4.05673 -4.403055,2.89126 -1.175825,-0.97586 -2.549969,-5.46346 -4.32184,-14.11413 -0.80592,-3.93473 -1.727409,-6.992 -2.047753,-6.794 -0.320342,0.198 -0.582442,0.74707 -0.582442,1.22013 0,1.09334 -4.080097,8.8004 -7.234083,13.66474 -1.330084,2.05133 -2.729075,4.32706 -3.108871,5.05713 -0.997076,1.91673 -2.605952,1.96993 -3.596562,0.11893 -0.723759,-1.35233 -0.582551,-3.32446 0.903274,-12.61506 2.257709,-14.11707 3.009385,-23.402 3.035707,-37.49794 0.02525,-13.52366 0.786576,-25.58576 3.029618,-48 1.776756,-17.75473 2.470142,-22.87947 3.988914,-29.48159 0.524853,-2.28155 0.787416,-4.5831 0.583472,-5.11458 -0.503474,-1.31202 -0.02899,-2.1327 10.062201,-17.40382 4.845883,-7.33334 10.113091,-15.58334 11.704908,-18.33334 2.740242,-4.734 2.886111,-5.24826 2.741935,-9.66666 -0.168275,-5.15695 0.983019,-8.23995 6.417623,-17.18549 1.502741,-2.47357 3.205725,-6.34552 3.784409,-8.60434 1.303886,-5.08957 3.797786,-10.04535 9.636407,-19.14909 2.490716,-3.8836 8.367489,-13.21108 13.059503,-20.72775 11.411167,-18.28085 19.191907,-29.8936 27.024014,-40.33333 9.80203,-13.06551 20.79984,-31.92225 22.55156,-38.66667 0.38094,-1.46666 1.46292,-7.61666 2.40441,-13.66666 2.00654,-12.89402 3.50587,-19.06096 8.91452,-36.66667 3.53715,-11.51381 4.00071,-13.6753 4.0548,-18.90701 0.0831,-8.03311 1.26694,-13.26008 7.49544,-33.09299 14.30976,-45.56538 19.77912,-56.57214 33.5468,-67.51085 1.83334,-1.45662 4.87404,-4.513 6.75713,-6.79195 4.20874,-5.09349 11.36837,-10.57712 16.18603,-12.39703 1.98541,-0.75 7.53541,-1.96462 12.33334,-2.69917 7.93787,-1.21525 14.35656,-2.49787 14.9575,-2.98889 0.12869,-0.10516 -0.57491,-1.25171 -1.56356,-2.5479 -0.98865,-1.29618 -2.33139,-4.09089 -2.98388,-6.21045 -2.69882,-8.76699 -2.38714,-15.81255 1.6308,-36.86457 3.70038,-19.38816 4.33602,-25.51215 5.36164,-51.65585 1.2367,-31.524312 2.79683,-43.377869 7.27529,-55.276014 5.26157,-13.978724 19.72456,-26.924972 36.40234,-32.58481 5.97592,-2.028016 13.15736,-3.0864809 23.64338,-3.4847789 10.09632,-0.3834966 10.98748,-0.3138473 16.66666,1.3026009 7.75854,2.208289 19.47996,8.064642 25.07313,12.527242 6.11804,4.881386 9.82664,9.456277 13.18763,16.268148 5.82321,11.802155 7.81591,19.917117 13.75851,56.029233 4.3467,26.414059 4.96596,32.841809 5.4162,56.218379 0.47844,24.83987 -0.0779,31.50253 -3.15938,37.83551 -2.27674,4.67915 -6.58248,8.51555 -10.35073,9.22248 -1.24228,0.23305 -2.25869,0.81479 -2.25869,1.29276 0,1.68664 10.63744,8.49771 16.6723,10.67516 1.6469,0.59421 7.94437,2.5671 13.99437,4.38419 23.13131,6.94736 34.28306,14.5554 45.32678,30.92323 8.19017,12.13859 10.8588,21.40945 14.68042,51 2.67175,20.68727 4.90189,33.44441 8.03172,45.94421 2.24049,8.94799 2.83564,10.51707 4.60058,12.12909 1.38526,1.26524 2.02717,2.47668 2.02717,3.82577 0,1.63493 0.51561,2.27639 3,3.73235 2.26496,1.32736 3,2.15958 3,3.39668 0,1.45278 0.28346,1.63616 2.5,1.61736 1.375,-0.0117 3.08234,-0.46166 3.79409,-1 1.60462,-1.21368 2.87565,-1.22988 5.10777,-0.0651 1.42479,0.74346 2.19999,0.75471 4.33333,0.0629 1.42898,-0.46342 7.99814,-2.37771 14.59814,-4.254 6.6,-1.87629 14.55,-4.16924 17.66667,-5.09546 5.80947,-1.72646 9.33743,-1.74604 11.63698,-0.0646 0.89306,0.65303 2.03366,0.35352 6.22815,-1.6355 11.29101,-5.35417 18.59441,-6.92329 23.03379,-4.94876 2.04641,0.91018 9.78742,-7.70094 13.02286,-14.48668 3.58571,-7.52038 4.57298,-12.2329 5.41032,-25.8249 0.95391,-15.48429 1.46539,-18.67109 5.29212,-32.97296 3.83768,-14.34276 4.61844,-19.22587 4.83092,-30.21432 0.0871,-4.503 0.3907,-8.553 0.67472,-9 0.37803,-0.59497 0.53004,-0.54479 0.56734,0.18728 0.028,0.55 1.30761,1.90833 2.84354,3.01851 1.53593,1.11018 3.7648,3.4649 4.95305,5.2327 3.51383,5.22768 4.26211,8.75283 4.61664,21.74879 0.24793,9.08885 0.62379,12.73462 1.70103,16.5 1.6185,5.65727 2.69316,6.12533 5.69694,2.48123 1.48386,-1.80018 2.21282,-3.77631 3.10663,-8.42176 2.40837,-12.51718 2.04311,-21.45079 -1.27601,-31.20943 -1.56568,-4.60325 -1.57004,-4.68334 -0.25548,-4.68334 2.08897,0 3.79474,1.17685 5.88182,4.05798 l 1.92352,2.65534 0.46574,-4.349 c 0.42523,-3.97076 0.24996,-6.80401 -0.7958,-12.86432 -0.32928,-1.90823 -0.19663,-2.16667 1.11209,-2.16667 2.40713,0 6.40848,4.52386 6.97682,7.8879 l 0.48731,2.88433 1.43248,-1.29119 c 2.57133,-2.3177 6.71477,-4.81437 7.98988,-4.81437 1.1848,0 1.2235,0.4971 0.76554,9.83333 -0.28723,5.85574 -0.98943,11.83156 -1.73597,14.77331 -0.6895,2.71699 -1.25363,5.23154 -1.25363,5.5879 0,0.35635 1.49249,-1.28539 3.31665,-3.64831 4.7177,-6.1111 9.15864,-9.07616 16.14883,-10.782 l 1.79882,-0.43897 -1.22662,3.56522 c -2.20399,6.40601 -4.90573,11.21491 -13.91151,24.76145 -10.01578,15.06581 -15.77537,26.19571 -24.41995,47.18948 -11.81014,28.68147 -17.20854,36.44904 -32.1326,46.23443 -7.80234,5.11585 -16.04251,11.49341 -18.98479,14.69348 -1.44538,1.57202 -1.88437,2.98327 -2.56023,8.23068 -1.20864,9.38402 -3.13953,19.22106 -5.75776,29.33333 -3.58841,13.85936 -4.86854,17.29062 -6.61426,17.72877 -0.85568,0.21476 -5.09443,-0.77862 -9.96105,-2.33446 -20.94684,-6.69658 -40.64724,-7.9446 -65.3622,-4.1407 -9.57838,1.47421 -19.29545,3.47356 -25.1686,5.17858 -7.05276,2.04748 -9.4545,-0.7105 -14.4896,-16.63881 -5.50154,-17.40388 -9.89077,-29.34721 -15.35927,-41.79338 -8.76404,-19.94671 -13.2625,-32.49817 -13.34732,-37.24125 -0.0266,-1.48702 -0.33246,-1.19226 -1.97975,1.90792 -2.23065,4.19806 -2.63853,5.41506 -8.04371,24 -4.8554,16.69458 -8.22027,32.94518 -9.66286,46.66666 -1.23299,11.72772 -1.01556,36.52423 0.39896,45.5 0.72414,4.59501 0.97325,5.16667 2.25152,5.16667 3.56378,0 6.32971,4.94868 5.43412,9.72254 -0.29275,1.56052 -0.0257,2.80462 0.94324,4.39384 1.71818,2.8182 1.71797,4.82834 -6.7e-4,6.4295 l -1.35727,1.26449 6.60816,17.59481 c 16.87108,44.92081 26.98055,78.10356 31.19693,102.39908 1.56316,9.00723 1.83321,12.45622 1.86836,23.8624 0.0333,10.80824 -0.17572,14.03295 -1.10375,17.02752 l -1.14484,3.69419 -4.41707,0.75661 c -2.42939,0.41613 -4.56911,0.90865 -4.75494,1.09447 -0.18583,0.18584 -0.0107,1.33298 0.38912,2.54921 1.43453,4.36353 2.73139,15.6958 2.73259,23.878 0.001,7.3946 -2.48604,29.0336 -3.7009,32.19947 -0.2676,0.69733 0.29698,1.09606 2.00594,1.41666 1.3819,0.25927 2.76502,1.0616 3.30124,1.915 1.4315,2.27834 2.31085,8.86367 3.15711,23.6432 0.9558,16.6926 0.1648,28.3678 -2.68695,39.65953 -2.29851,9.10107 -3.91624,12.47267 -7.17842,14.96087 -2.09618,1.5988 -3.074,1.87193 -6.70194,1.87193 -3.70856,0 -4.28375,0.1692 -4.53176,1.33334 -0.15624,0.73333 -1.07112,5.68333 -2.03309,11 -4.87638,26.9512 -14.94181,69.3438 -17.37375,73.17313 -0.86749,1.366 -0.79942,1.73806 0.72954,3.98813 2.11973,3.11947 2.14154,5.9818 0.0688,9.03613 -1.41331,2.0826 -1.52815,2.67434 -0.90999,4.68854 0.49398,1.60953 0.49729,2.908 0.0109,4.30313 -0.38733,1.11107 -0.4427,2.2524 -0.12475,2.57113 1.24773,1.25074 5.28303,27.67234 8.64028,56.57314 1.15003,9.9 3.27071,25.13226 4.71261,33.8494 1.44192,8.71726 2.62166,17.17286 2.62166,18.79026 0,2.7546 0.14742,2.994 2.3287,3.7828 3.58383,1.2959 4.6708,4.8433 4.67108,15.2442 1.8e-4,6.9684 -0.36717,10.026 -2.24271,18.6667 -3.78715,17.4477 -4.69894,20.8552 -6.68967,25 -1.05664,2.2 -2.08387,4.9 -2.28274,6 -0.19887,1.1 -0.9913,4.85 -1.76096,8.3333 -0.76966,3.4834 -3.04002,15.4834 -5.04523,26.6667 -2.00522,11.1833 -3.79543,20.9845 -3.97827,21.7805 -0.26794,1.1665 0.0379,1.5285 1.57694,1.8665 6.24427,1.3715 6.15856,7.9551 -0.16881,12.9669 -1.42542,1.129 -2.83987,2.0528 -3.14321,2.0528 -0.92028,0 -1.72932,2.1464 -2.19875,5.8333 -0.37983,2.9833 -0.28386,3.5 0.65003,3.5 0.60262,0 1.80777,0.675 2.67812,1.5 1.32535,1.2563 1.58431,2.1609 1.59396,5.5681 0.0154,5.4492 -1.89591,8.5038 -5.50993,8.8055 -1.36321,0.1138 -2.47855,0.4906 -2.47855,0.8374 0,0.3467 -0.73452,6.4037 -1.63226,13.4597 -0.89775,7.0561 -1.96647,17.3293 -2.37494,22.8293 -0.40848,5.5 -0.87938,10.4784 -1.04647,11.0631 -0.33802,1.183 9.64885,27.2298 18.89121,49.2702 8.2202,19.603 9.49589,23.3477 9.49526,27.8731 -10e-4,8.9895 -10.04342,22.3071 -20.9637,27.8012 -3.88857,1.9564 -7.20802,2.0657 -12.38796,0.4077 z"
       id="path262" />
  </g>
</svg>
