<?xml version="1.0" encoding="UTF-8" standalone="no"?>
<svg
   xmlns:dc="http://purl.org/dc/elements/1.1/"
   xmlns:cc="http://creativecommons.org/ns#"
   xmlns:rdf="http://www.w3.org/1999/02/22-rdf-syntax-ns#"
   xmlns:svg="http://www.w3.org/2000/svg"
   xmlns="http://www.w3.org/2000/svg"
   xmlns:xlink="http://www.w3.org/1999/xlink"
   xmlns:sodipodi="http://sodipodi.sourceforge.net/DTD/sodipodi-0.dtd"
   xmlns:inkscape="http://www.inkscape.org/namespaces/inkscape"
   version="1.1"
   id="svg78"
   width="702.66669"
   height="1357.3333"
   viewBox="0 0 702.66669 1357.3333"
   sodipodi:docname="regenbogen.svgz"
   inkscape:version="1.0.2 (e86c870879, 2021-01-15)">
  <metadata
     id="metadata84">
    <rdf:RDF>
      <cc:Work
         rdf:about="">
        <dc:format>image/svg+xml</dc:format>
        <dc:type
           rdf:resource="http://purl.org/dc/dcmitype/StillImage" />
        <dc:title></dc:title>
      </cc:Work>
    </rdf:RDF>
  </metadata>
  <defs
     id="defs82">
    <linearGradient
       inkscape:collect="always"
       id="linearGradient1175">
      <stop
         style="stop-color:#ff0000;stop-opacity:1"
         offset="0"
         id="stop1171" />
      <stop
         style="stop-color:#ffd900;stop-opacity:1"
         offset="0.38251984"
         id="stop1231" />
      <stop
         style="stop-color:#ffe600;stop-opacity:1"
         offset="0.42188865"
         id="stop1235" />
      <stop
         style="stop-color:#ffea00;stop-opacity:1"
         offset="0.43525657"
         id="stop1257" />
      <stop
         style="stop-color:#f7e600;stop-opacity:1"
         offset="0.45251268"
         id="stop1179" />
      <stop
         style="stop-color:#a5d200;stop-opacity:1"
         offset="0.52323002"
         id="stop1233" />
      <stop
         style="stop-color:#65b600;stop-opacity:1"
         offset="0.57054138"
         id="stop1181" />
      <stop
         style="stop-color:#4b8c75;stop-opacity:1"
         offset="0.67727268"
         id="stop1253" />
      <stop
         style="stop-color:#3a6199;stop-opacity:1"
         offset="0.7568931"
         id="stop1183" />
      <stop
         style="stop-color:#5238aa;stop-opacity:1"
         offset="0.81771439"
         id="stop1255" />
      <stop
         style="stop-color:#a01ca0;stop-opacity:1"
         offset="1"
         id="stop1173" />
    </linearGradient>
    <linearGradient
       inkscape:collect="always"
       xlink:href="#linearGradient1175"
       id="linearGradient1177"
       x1="1.514541"
       y1="151.46786"
       x2="699.7395"
       y2="1194.2419"
       gradientUnits="userSpaceOnUse" />
  </defs>
  <sodipodi:namedview
     pagecolor="#ffffff"
     bordercolor="#666666"
     borderopacity="1"
     objecttolerance="10"
     gridtolerance="10"
     guidetolerance="10"
     inkscape:pageopacity="0"
     inkscape:pageshadow="2"
     inkscape:window-width="3840"
     inkscape:window-height="2091"
     id="namedview80"
     showgrid="false"
     inkscape:zoom="1.3939097"
     inkscape:cx="182.02539"
     inkscape:cy="678.66663"
     inkscape:window-x="0"
     inkscape:window-y="41"
     inkscape:window-maximized="1"
     inkscape:current-layer="g86" />
  <g
     inkscape:groupmode="layer"
     inkscape:label="Image"
     id="g86">
    <path
       style="fill:url(#linearGradient1177);stroke-width:1;fill-opacity:1"
       d="m 570.00002,1346.0652 c -5.12684,-2.2112 -9.24923,-6.7191 -12.26969,-13.4168 -2.14386,-4.7538 -2.39698,-9.7503 -2.39698,-47.3151 v -42 l -4.41821,-10.2384 c -2.43003,-5.6311 -8.49455,-16.1708 -13.47671,-23.4216 l -9.05849,-13.1833 0.0547,-9.245 c 0.068,-11.5004 -1.787,-15.2536 -13.82469,-27.9717 -11.284,-11.9218 -13.14108,-17.215 -10.24861,-29.2117 1.12885,-4.6819 1.68438,-11.4155 1.32514,-16.0616 -0.41804,-5.4064 0.28899,-11.8165 2.18083,-19.772 4.08997,-17.1989 3.73801,-24.4737 -1.77689,-36.7269 -3.04802,-6.7722 -5.75686,-16.3742 -8.1113,-28.7523 -4.40612,-23.1644 -5.49425,-25.8628 -18.04461,-44.74882 -16.79144,-25.26803 -26.34783,-42.8232 -32.29887,-59.33334 -1.85029,-5.13333 -5.73699,-13.23333 -8.63711,-18 -2.9001,-4.76666 -12.84789,-23.96666 -22.10617,-42.66666 -9.25829,-18.7 -20.12092,-39.99265 -24.13917,-47.31701 -4.01827,-7.32436 -8.02311,-16.30656 -8.89967,-19.96046 -3.03865,-12.66652 -24.50087,-42.05586 -30.71224,-42.05586 -4.4563,0 -6.76518,5.03945 -8.5314,18.621 -0.9582,7.36817 -2.34982,15.3427 -3.09248,17.72117 -2.20651,7.06665 -5.20756,24.10621 -8.86328,50.32449 -1.89166,13.56667 -4.61268,30.46092 -6.04672,37.54278 -1.43404,7.08186 -2.60735,16.1365 -2.60735,20.12142 0,10.35551 -2.46264,17.26401 -12.70329,35.6368 -14.64322,26.27145 -16.39507,35.91916 -16.85163,92.80409 -0.35668,44.441 -1.27423,40.4605 13.46857,58.4281 9.80148,11.9453 12.12671,16.5694 13.04904,25.9502 0.40648,4.1341 1.55616,9.1368 2.55484,11.1171 2.80842,5.5686 2.3059,11.3517 -1.1842,13.6279 -1.65,1.0762 -9.3,2.9539 -17,4.1728 -15.19241,2.4048 -20.27486,4.3674 -23.20384,8.9599 -1.04258,1.6347 -2.58,9.5722 -3.41648,17.6389 -2.8032,27.0328 -7.20466,40.7446 -18.31794,57.0655 l -7.26524,10.6697 3.97218,12.1324 c 7.82826,23.9102 8.57768,41.5841 2.32858,54.9158 -3.6181,7.7187 -12.83465,18.4952 -18.18371,21.2613 -4.79091,2.4775 -15.60963,2.47 -25.91355,-0.018 -11.78628,-2.8459 -23.06043,-2.5896 -28.36556,0.645 -2.40105,1.4639 -6.60105,2.6695 -9.33333,2.679 -2.73228,0.01 -12.46778,1.2017 -21.63444,2.6493 -18.79911,2.9688 -34.61549,3.3894 -43.48406,1.1563 -6.28629,-1.5829 -13.84928,-7.844 -13.84928,-11.4653 0,-4.498 10.33823,-11.9298 26.34361,-18.9377 8.81216,-3.8583 18.75354,-9.2062 22.09194,-11.8842 3.3384,-2.678 8.56635,-6.6691 11.61765,-8.8691 12.15744,-8.7656 22.66422,-26.471 25.49112,-42.9563 1.37583,-8.0232 1.25371,-11.6306 -0.84746,-25.0334 -3.12895,-19.9585 -1.91723,-29.3811 5.86374,-45.597 2.99167,-6.2349 5.4394,-12.8574 5.4394,-14.7168 0,-3.2872 -3.25141,-7.019 -16.38409,-18.8048 -3.46124,-3.1063 -4.94924,-5.5577 -4.94924,-8.1535 0,-4.1325 4.52495,-10.7382 7.35576,-10.7382 3.61175,0 8.78844,-6.0106 10.05775,-11.678 1.72562,-7.7048 -1.31843,-21.9691 -8.25216,-38.6693 -2.96543,-7.1423 -7.72339,-20.486 -10.57324,-29.6527 -2.84987,-9.1667 -9.13818,-28.0667 -13.974,-41.99999 -4.83584,-13.93333 -11.48995,-34.93333 -14.7869,-46.66667 -5.99547,-21.3369 -21.81845,-72.15942 -36.53034,-117.33333 -4.29887,-13.2 -9.897611,-32.4 -12.441638,-42.66666 -2.544026,-10.26667 -9.911605,-33.71148 -16.372396,-52.0996 L 66.069284,699.13413 58.703258,697.42158 C 44.309971,694.07528 28.9346,683.90001 14.163864,667.94585 4.5805859,657.59477 2.018457,649.69833 3.0223106,633.60778 c 0.5850231,-9.3772 1.4927471,-12.80382 5.58543,-21.0848 3.7950914,-7.67885 5.8369834,-10.29011 9.1395704,-11.68811 8.500643,-3.59835 11.476079,-10.84039 11.573085,-28.16822 0.09477,-16.9301 4.523556,-20.02244 17.343246,-12.10968 16.889483,10.42478 22.933562,4.63424 33.935771,-32.51225 2.702482,-9.12432 6.370998,-19.67036 8.152258,-23.43564 1.78126,-3.76527 5.071853,-14.29265 7.31243,-23.39419 4.421949,-17.96255 8.543079,-25.98053 14.066129,-27.36673 1.90218,-0.47741 6.85104,-0.51532 10.99747,-0.0843 14.00377,1.45592 22.15488,-4.44904 42.92616,-31.09727 7.14507,-9.16667 15.18689,-18.76439 17.87073,-21.32825 2.68384,-2.56388 6.95,-8.36362 9.48036,-12.88831 6.07751,-10.86761 17.94119,-26.68597 29.59832,-39.46475 12.47402,-13.67426 14.7246,-18.70846 17.89363,-40.02515 1.84289,-12.39638 3.97237,-20.9624 7.17641,-28.86771 7.07283,-17.45075 12.78825,-22.01997 33.58569,-26.85027 18.41138,-4.2761 24.78425,-6.57553 28.00768,-10.10557 4.39338,-4.81127 3.9185,-12.49073 -1.66667,-26.95259 -4.87875,-12.63267 -5.50956,-17.3447 -3.39537,-25.3627 0.69921,-2.65175 2.27849,-12.55145 3.50952,-21.99936 2.4592,-18.87392 1.95105,-31.58329 -1.53206,-38.31888 -1.47188,-2.84629 -1.9314,-5.86796 -1.39885,-9.19834 1.08931,-6.81212 -2.01988,-16.27708 -7.57316,-23.054115 C 293.07133,95.152416 284.02764,87.648669 275.51297,81.575642 263.69982,73.149981 257.26377,67.325013 248.34922,56.990995 223.70891,28.427169 218.75873,21.055061 218.69595,12.829562 c -0.0287,-3.7642332 0.0783,-3.8206305 5.63739,-2.9707332 12.2054,1.8660412 21.99179,8.2728602 41,26.8413692 18.45138,18.024547 22.49727,20.633134 32.00179,20.633134 10.65488,0 18.2604,-9.98227 24.06645,-31.587283 2.09616,-7.800055 3.82042,-11.639547 5.67219,-12.630582 1.70969,-0.915004 10.09388,-1.205894 23.46004,-0.813948 21.08507,0.618293 29.02592,2.039174 59.27822,10.606839 12.71438,3.600803 21.41098,11.67053 24.48234,22.717582 1.72284,6.196744 2.60691,7.625152 4.27234,6.902928 1.15498,-0.500867 7.26422,-2.707624 13.57608,-4.903905 14.36597,-4.998795 19.62415,-4.409035 26.50573,2.972904 2.57666,2.763994 7.08483,5.783693 10.01816,6.710441 19.4799,6.154418 40.47375,22.497497 47.99996,37.366523 2.03927,4.028841 5.72352,9.683169 8.18723,12.565169 7.40979,8.6678 6.69483,9.24665 -10.07807,8.15956 -20.70985,-1.34226 -22.5717,0.0616 -17.59569,13.2671 3.50009,9.28864 4.58021,17.04186 3.53719,25.39003 -1.09508,8.76472 -5.1689,15.16659 -11.685,18.36261 -4.6512,2.28134 -5.37262,2.29558 -12.64907,0.24959 -17.44389,-4.90488 -20.96321,-4.44312 -22.95016,3.01119 -1.71323,6.42741 -0.0968,13.48758 4.94477,21.59781 2.15872,3.47264 4.68827,9.55574 5.62124,13.518 3.29416,13.99016 10.41068,24.234 20.41818,29.39085 2.79616,1.44085 11.19616,4.12637 18.66666,5.96781 14.74051,3.63347 21.892,7.16099 28.51519,14.0653 6.64654,6.92864 8.54326,13.16622 9.84918,32.39008 1.31936,19.42184 5.34833,36.59253 11.96432,50.98958 2.29169,4.98693 7.05352,17.46715 10.58185,27.73381 7.97196,23.1966 18.33183,47.48127 25.86821,60.63796 3.15955,5.51579 6.16156,11.74699 6.67114,13.84711 1.05305,4.33991 4.087,10.64657 18.6145,38.694 8.08111,15.60174 11.36968,20.63557 15.37799,23.53918 5.64632,4.09016 9.62258,9.92534 12.15595,17.8389 1.5792,4.93294 2.72165,43.61805 2.56269,86.77618 -0.0689,18.72989 2.74556,31.72933 9.66423,44.63599 2.43331,4.53928 5.44875,10.15316 6.70097,12.47529 1.25224,2.32213 4.15188,11.42205 6.44366,20.22205 3.73472,14.34063 4.11089,17.5211 3.62717,30.66667 -0.66085,17.95951 -2.15056,21.67308 -16.13587,40.22396 -10.50688,13.93689 -20.20822,23.60776 -24.91759,24.83928 -3.88929,1.01708 -6.62749,-2.49139 -6.62749,-8.49182 0,-4.85201 -0.27604,-5.23809 -3.74516,-5.23809 -2.05984,0 -4.76993,-0.75 -6.02244,-1.66667 -2.08265,-1.52422 -1.74405,-2.52129 3.96195,-11.66666 7.94621,-12.73589 9.00509,-19.83505 4.09698,-27.46779 -1.83868,-2.85938 -3.73316,-7.44652 -4.20996,-10.19362 -0.4768,-2.74711 -2.26965,-6.62554 -3.98413,-8.61874 -2.81905,-3.27734 -3.45839,-3.46854 -6.68391,-1.9989 -4.55894,2.07718 -10.00774,13.71213 -11.02149,23.53442 -0.4682,4.53635 -1.46961,7.53958 -2.66733,7.99918 -3.20602,1.23026 -6.75534,-1.63126 -8.47087,-6.82935 -3.64111,-11.03267 2.36283,-54.56511 10.30941,-74.74999 2.91019,-7.39205 3.56666,-11.28145 3.65843,-21.67521 0.0996,-11.27091 -0.31043,-13.58087 -3.72037,-20.96316 -3.76996,-8.16173 -4.942,-9.43064 -24.90306,-26.96124 -4.72289,-4.14782 -8.07469,-8.74586 -11.17741,-15.33333 -5.4926,-11.66143 -7.21008,-18.69952 -8.29581,-33.99545 l -0.84975,-11.97138 -7.89876,-11.05438 c -11.56503,-16.18538 -17.02227,-25.59118 -20.31448,-35.0129 -1.60956,-4.60629 -4.84326,-10.70002 -7.18599,-13.54161 -2.85587,-3.464 -5.86276,-10.16853 -9.12471,-20.34556 -3.849,-12.00856 -5.88933,-16.25558 -9.76838,-20.33333 -2.69676,-2.83488 -5.7461,-5.14969 -6.77631,-5.14405 -1.03021,0.005 -3.16204,2.2684 -4.7374,5.02833 -1.57535,2.75993 -9.08652,11.90532 -16.69149,20.32307 -16.61858,18.39468 -19.32779,22.58158 -21.70442,33.54266 -1.00518,4.63595 -2.86641,12.629 -4.13605,17.76233 -4.59544,18.58002 -2.61223,40.84828 4.74988,53.33334 1.29728,2.2 2.79017,6.1 3.31753,8.66666 0.52736,2.56667 3.64543,13.06667 6.92904,23.33334 3.28363,10.26666 7.03934,24.06666 8.34602,30.66666 1.30668,6.6 5.79389,21.56673 9.97157,33.25941 9.08179,25.41852 14.83289,47.06372 16.79715,63.21863 1.24172,10.21255 1.12721,12.8368 -0.8199,18.78973 -3.06918,9.3835 -2.0243,18.84925 4.71156,42.68327 3.62524,12.82745 5.52027,22.33884 5.704,28.62913 0.16216,5.55185 1.19591,11.33605 2.51751,14.08649 2.47176,5.14407 4.10904,13.26588 7.12285,35.33334 1.58136,11.5789 2.99163,16.6316 6.69868,24 3.72484,7.4037 4.6944,10.89413 4.68966,16.8827 -0.008,9.65253 2.92356,24.88771 6.75645,35.11729 1.64863,4.4 10.14138,21.70419 18.87276,38.45375 16.52235,31.69508 22.82167,45.84111 24.43818,54.87961 1.70062,9.5088 5.55293,15.1357 14.8902,21.7492 15.32422,10.854 16.97728,12.9361 26.14742,32.9326 12.84011,27.9994 15.71136,38.2963 13.68727,49.0857 -0.78969,4.2094 -1.41273,4.7686 -6.21755,5.5803 -2.93696,0.4962 -7.11909,2.3993 -9.29364,4.229 -3.44269,2.8969 -3.95373,4.2167 -3.95373,10.2112 0,3.7863 1.8,13.1817 4,20.8786 2.2,7.6969 4.00031,15.1957 4.00067,16.6639 3.7e-4,1.4682 1.30182,5.9695 2.89213,10.0028 4.36047,11.0591 4.20771,26.3204 -0.36095,36.0608 -1.90749,4.0668 -5.3634,9.5528 -7.67982,12.191 l -4.21167,4.7969 5.33595,17.3786 c 6.60149,21.5005 12.45557,34.4017 20.57348,45.3398 7.02781,9.4694 8.78355,13.2777 8.78355,19.0526 0,10.5966 -8.84526,17.0707 -24.50759,17.9378 -29.48674,1.6325 -63.01132,1.6197 -66.82575,-0.025 z M 204.42365,1059.3339 c 0.44509,-4.7664 2.89638,-19.3164 5.44733,-32.3334 2.55093,-13.0169 5.93452,-33.26719 7.51908,-45.00052 1.58456,-11.73334 3.70701,-27.33334 4.71659,-34.66667 2.6512,-19.25803 2.32185,-32.32717 -1.36322,-54.09588 -1.79112,-10.5806 -3.9708,-27.327 -4.84374,-37.21422 -1.98008,-22.42698 -0.86152,-69.55222 2.02601,-85.35656 3.87711,-21.22052 2.28855,-32.14857 -5.91149,-40.66667 -8.3963,-8.72196 -8.6478,-17.21342 -1.34754,-45.4958 2.93334,-11.36418 5.33334,-22.89128 5.33334,-25.61576 0,-2.72448 2.37086,-14.23894 5.2686,-25.58769 2.89773,-11.34875 8.04462,-33.23408 11.43753,-48.63408 3.39292,-15.4 8.17211,-35.5 10.62043,-44.66666 3.18717,-11.93306 4.69886,-21.0216 5.3225,-32 1.11959,-19.70847 3.72389,-36.38759 7.96883,-51.036 1.86016,-6.41903 3.38211,-11.96995 3.38211,-12.33537 0,-1.5138 -10.28439,3.78148 -13.80648,7.10877 -2.09356,1.97776 -7.96215,9.39273 -13.04131,16.47772 -11.69323,16.31104 -18.04323,22.84016 -26.26607,27.00698 -6.73272,3.41174 -13.55281,10.21638 -13.55281,13.52212 0,1.03012 0.71507,6.04291 1.58904,11.13954 2.18163,12.72221 0.91519,15.15336 -10.60103,20.35066 -17.44616,7.87351 -40.52913,28.37066 -47.54781,42.22136 l -3.26882,6.45068 -6.85279,-1.40378 c -8.28396,-1.69695 -12.42441,0.0949 -16.58517,7.17764 -2.42271,4.12409 -2.73701,6.92644 -2.76495,24.65301 -0.0353,22.37568 0.019,22.19348 -10.308873,34.61974 -8.57635,10.31888 -9.650702,13.18863 -6.765785,18.0724 2.152143,3.6433 2.096098,4.29351 -1.340757,15.55504 -4.276458,14.01266 -4.350524,16.57824 -0.704979,24.41948 1.534234,3.3 3.623447,10.65402 4.642695,16.34226 1.019249,5.68822 5.133254,19.56503 9.142229,30.83734 4.00898,11.27229 9.15866,27.01829 11.44372,34.99108 2.28507,7.97279 8.56484,28.89599 13.95504,46.49599 5.39021,17.6 12.26033,40.7 15.26694,51.33333 5.34475,18.90248 32.28258,102.6487 49.10682,152.66662 1.48,4.4 3.36027,10.5232 4.17837,13.6071 1.41988,5.3524 4.41122,9.7263 6.65187,9.7263 0.57492,0 1.40945,-3.8998 1.85455,-8.6661 z M 35.865623,675.74889 C 31.587476,667.7551 8.0000003,646.42122 8.0000003,650.54561 c 0,2.90349 2.9538987,8.73783 5.2316897,10.33325 1.34179,0.93983 4.424689,4.80224 6.850884,8.58314 4.501555,7.01506 10.233822,10.72861 14.741299,9.54988 1.981498,-0.51818 2.179243,-1.13756 1.04175,-3.26299 z"
       id="path110" />
  </g>
</svg>
